# xmcd CD database file
#
# Track frame offsets:
#	183
#	18583
#	32815
#	44925
#	58633
#	85368
#	102470
#	118388
#	130600
#	141418
#	158803
#	176355
#	193883
#	210735
#	224070
#	249298
#	263298
#	277450
#	301700
#	313183
#	326728
#
# Disc length: 4691 seconds
#
# Revision: 1
# Processed by: cddbd v1.5.2PL0 Copyright (c) Steve Scherf et al.
# Submitted via: CDex 1.70beta2
#
DISCID=4b125115
DTITLE=Dave Greenslade - The Pentateuch of The Cosmogony
DYEAR=1994
DGENRE=New Age
TTITLE0=Introit
TTITLE1=Moondance
TTITLE2=Beltempest
TTITLE3=Glass
TTITLE4=Three Brides*
TTITLE5=Birds&Bats&Dragonfiles+
TTITLE6=Nursery Hymn
TTITLE7=The Minstrel+
TTITLE8=Fresco/Kashrinn
TTITLE9=Barcarole*
TTITLE10=Dry Land
TTITLE11=Forest Kingdom*
TTITLE12=Vivat Regina
TTITLE13=Scream But Not Heard
TTITLE14=Mischief
TTITLE15=War*+
TTITLE16=Lament For The Sea*
TTITLE17=Miasma Generator*
TTITLE18=Exile
TTITLE19=Jubilate
TTITLE20=The Tiger And The Dove
EXTD=YEAR: 1994
EXTT0=
EXTT1=
EXTT2=
EXTT3=
EXTT4=
EXTT5=
EXTT6=
EXTT7=
EXTT8=
EXTT9=
EXTT10=
EXTT11=
EXTT12=
EXTT13=
EXTT14=
EXTT15=
EXTT16=
EXTT17=
EXTT18=
EXTT19=
EXTT20=
PLAYORDER=
